<?xml version="1.0" standalone="no"?>
<!DOCTYPE svg PUBLIC "-//W3C//DTD SVG 20010904//EN"
 "http://www.w3.org/TR/2001/REC-SVG-20010904/DTD/svg10.dtd">
<svg version="1.0" xmlns="http://www.w3.org/2000/svg"
 width="512.000000pt" height="512.000000pt" viewBox="0 0 512.000000 512.000000"
 preserveAspectRatio="xMidYMid meet">

<g transform="translate(0.000000,512.000000) scale(0.100000,-0.100000)"
fill="#000000" stroke="none">
<path d="M141 4979 c-40 -40 -43 -94 -6 -137 22 -26 65 -44 316 -127 228 -76
293 -102 305 -120 8 -12 149 -652 314 -1421 210 -980 306 -1412 322 -1444 27
-52 92 -105 147 -120 26 -7 485 -9 1406 -8 l1367 3 29 33 c41 46 40 99 -2 141
l-31 31 -1358 0 c-1076 0 -1361 3 -1367 13 -4 6 -18 56 -29 110 l-21 97 21 5
c11 3 246 41 521 85 2129 339 2064 327 2143 366 87 42 178 127 214 199 14 28
85 192 158 365 118 280 138 320 182 370 108 120 188 285 224 461 24 120 15
312 -20 432 -96 325 -339 567 -663 663 -110 32 -294 43 -410 24 -195 -31 -375
-123 -518 -265 -143 -142 -223 -286 -267 -478 l-22 -97 -1010 2 -1011 3 -52
245 c-59 273 -79 319 -165 378 -50 34 -605 222 -655 222 -22 0 -41 -9 -62 -31z
m4124 -209 c246 -77 429 -260 505 -505 29 -96 37 -256 17 -352 -33 -153 -97
-271 -207 -384 -86 -87 -179 -146 -295 -185 -64 -22 -104 -28 -201 -32 -147
-5 -245 16 -374 80 -69 34 -103 60 -180 138 -78 77 -104 111 -138 180 -64 129
-85 227 -80 374 4 97 10 137 32 201 88 259 303 447 577 505 74 16 265 4 344
-20z m-1156 -882 c40 -212 135 -384 294 -534 247 -232 589 -315 915 -221 45
13 82 21 82 17 0 -15 -154 -368 -172 -392 -24 -35 -92 -82 -138 -96 -28 -9
-844 -142 -2475 -402 -66 -11 -122 -16 -126 -12 -3 4 -86 383 -184 842 -98
459 -180 841 -183 848 -3 9 198 12 986 12 l989 0 12 -62z"/>
<path d="M4380 4360 c-8 -5 -108 -103 -222 -217 l-208 -208 -102 101 c-57 56
-113 107 -125 113 -77 39 -170 -41 -143 -123 14 -42 304 -332 343 -341 15 -4
39 -4 55 0 28 7 468 435 523 509 40 54 40 104 -2 145 -23 24 -39 31 -67 31
-20 0 -44 -5 -52 -10z"/>
<path d="M1573 1155 c-173 -47 -311 -176 -370 -348 -35 -99 -35 -235 0 -334
107 -310 449 -450 746 -306 125 60 242 210 276 354 66 281 -123 579 -403 638
-71 15 -185 13 -249 -4z m244 -217 c74 -27 153 -101 184 -171 32 -72 32 -182
1 -252 -29 -63 -92 -129 -157 -163 -43 -23 -62 -27 -135 -27 -73 0 -93 4 -142
28 -105 51 -168 146 -176 262 -5 85 8 138 51 201 85 126 234 175 374 122z"/>
<path d="M3922 1154 c-91 -24 -162 -64 -233 -132 -222 -209 -223 -555 0 -764
37 -36 93 -77 122 -91 201 -98 436 -67 596 77 196 176 234 471 89 689 -123
186 -363 278 -574 221z m271 -228 c61 -29 114 -82 149 -148 19 -36 23 -58 23
-138 0 -80 -4 -102 -23 -138 -35 -66 -88 -119 -150 -149 -49 -24 -69 -28 -142
-28 -102 1 -161 27 -229 100 -63 68 -85 124 -85 215 0 95 27 159 93 224 99 98
242 122 364 62z"/>
</g>
</svg>
