<?xml version="1.0" standalone="no"?>
<!DOCTYPE svg PUBLIC "-//W3C//DTD SVG 20010904//EN"
 "http://www.w3.org/TR/2001/REC-SVG-20010904/DTD/svg10.dtd">
<svg version="1.0" xmlns="http://www.w3.org/2000/svg"
 width="900.000000pt" height="800.000000pt" viewBox="0 0 900.000000 800.000000"
 preserveAspectRatio="xMidYMid meet">

<g transform="translate(0.000000,800.000000) scale(0.100000,-0.100000)"
fill="#000000" stroke="none">
<path d="M820 7820 c0 -18 -7 -20 -60 -20 -53 0 -60 -2 -60 -20 0 -13 -7 -20
-20 -20 -13 0 -20 -7 -20 -20 0 -13 -7 -20 -20 -20 -13 0 -20 -7 -20 -20 0
-13 -7 -20 -20 -20 -17 0 -20 -7 -20 -40 0 -33 -3 -40 -20 -40 -19 0 -20 -7
-20 -105 0 -93 2 -105 18 -106 14 0 14 -2 -3 -9 -14 -6 -16 -9 -5 -10 8 -2 18
-2 23 -1 4 0 7 -10 7 -24 0 -18 5 -25 20 -25 17 0 20 -7 20 -40 l0 -40 40 0
c33 0 40 -3 40 -20 0 -19 10 -23 63 -23 13 0 17 -5 14 -18 -5 -18 10 -19 439
-19 l443 0 3 -77 c3 -67 5 -78 21 -77 14 2 17 -7 17 -62 0 -57 2 -64 20 -64
18 0 20 -7 20 -59 0 -50 3 -59 20 -64 18 -5 20 -14 20 -81 0 -69 2 -76 20 -76
18 0 20 -7 20 -60 0 -53 2 -60 20 -60 18 0 20 -7 20 -80 0 -73 2 -80 20 -80
18 0 20 -7 20 -60 0 -53 2 -60 20 -60 18 0 20 -7 20 -60 0 -53 2 -60 20 -60
17 0 19 -8 22 -77 3 -68 5 -78 21 -75 15 2 17 -6 17 -63 0 -58 2 -65 20 -65
18 0 20 -7 20 -60 0 -53 2 -60 20 -60 18 0 20 -7 20 -80 0 -73 2 -80 20 -80
18 0 20 -7 20 -60 0 -53 2 -60 20 -60 18 0 20 -7 20 -64 0 -59 2 -64 20 -59
19 5 20 0 20 -76 0 -74 2 -81 20 -81 18 0 20 -7 20 -60 0 -53 2 -60 20 -60 18
0 20 -7 20 -64 0 -59 2 -64 20 -59 19 5 20 0 20 -76 0 -74 2 -81 20 -81 18 0
20 -7 20 -60 0 -53 2 -60 20 -60 18 0 20 -7 20 -80 0 -73 2 -80 20 -80 18 0
20 -7 20 -60 0 -53 2 -60 20 -60 18 0 20 -7 20 -59 0 -50 3 -59 20 -64 16 -4
19 -15 22 -78 3 -63 6 -74 21 -73 14 2 17 -7 17 -62 0 -57 2 -64 20 -64 18 0
20 -7 20 -60 0 -53 2 -60 20 -60 18 0 20 -7 20 -80 0 -73 2 -80 20 -80 18 0
20 -7 20 -60 0 -53 2 -60 20 -60 18 0 20 -7 20 -60 0 -53 2 -60 20 -60 18 0
20 -7 20 -80 0 -73 2 -80 20 -80 18 0 20 -7 20 -60 0 -53 2 -60 20 -60 19 0
20 -7 20 -101 0 -96 -1 -101 -20 -96 -18 5 -20 0 -20 -39 0 -37 -3 -44 -20
-44 -17 0 -20 -7 -20 -40 0 -33 -3 -40 -20 -40 -18 0 -20 -7 -20 -59 0 -48 -3
-60 -17 -64 -17 -4 -17 -5 0 -6 24 -1 22 -21 -3 -21 -19 0 -20 -7 -20 -205 0
-198 1 -205 20 -205 17 0 20 -7 20 -39 0 -31 4 -40 21 -44 11 -3 19 -11 18
-19 -5 -39 2 -58 21 -58 13 0 20 -7 20 -20 0 -13 7 -20 20 -20 17 0 20 -7 20
-40 0 -29 4 -40 15 -40 13 0 14 4 5 20 -7 12 -7 20 -1 20 5 0 13 -9 16 -20 3
-11 15 -20 26 -20 12 0 19 -7 19 -20 0 -13 7 -20 20 -20 13 0 20 -7 20 -20 0
-17 7 -20 40 -20 33 0 40 -3 40 -20 0 -17 7 -20 40 -20 33 0 40 -3 40 -20 0
-18 7 -20 80 -20 73 0 80 -2 80 -20 0 -20 7 -20 315 -20 308 0 315 0 315 20 0
19 7 20 245 20 238 0 245 1 245 20 0 19 7 20 255 20 248 0 255 1 255 20 0 20
7 20 290 20 283 0 290 0 290 20 0 20 7 20 330 20 323 0 330 0 330 20 0 20 7
20 725 20 718 0 725 0 725 20 0 17 7 20 40 20 33 0 40 3 40 20 0 13 7 20 20
20 17 0 20 7 20 40 0 33 3 40 20 40 19 0 20 7 20 100 0 93 -1 100 -20 100 -17
0 -20 7 -20 40 0 33 -3 40 -20 40 -13 0 -20 7 -20 20 0 17 -7 20 -40 20 -33 0
-40 3 -40 20 0 20 -7 20 -770 20 -763 0 -770 0 -770 -20 0 -20 -7 -20 -329
-20 -320 0 -329 -1 -334 -20 -5 -19 -14 -20 -281 -20 -269 0 -276 0 -276 -20
0 -19 -7 -20 -265 -20 -258 0 -265 -1 -265 -20 0 -19 -7 -20 -240 -20 -233 0
-240 -1 -240 -20 0 -19 -7 -20 -235 -20 -228 0 -235 1 -235 20 0 18 -7 20 -60
20 -53 0 -60 2 -60 20 0 13 -7 20 -20 20 -19 0 -20 7 -20 100 0 93 1 100 20
100 17 0 20 7 20 40 l0 40 120 0 c118 0 126 2 121 33 0 4 77 7 173 7 106 0
177 4 181 10 3 6 -2 10 -12 11 -16 0 -16 1 2 9 11 5 82 9 157 9 133 1 137 2
141 24 l4 22 2 -22 c1 -28 21 -31 21 -3 0 19 7 20 165 20 158 0 165 1 165 20
0 19 7 20 160 20 153 0 160 1 160 20 0 19 7 20 160 20 153 0 160 1 160 20 0
19 7 20 159 20 158 0 160 0 164 23 l4 22 2 -22 c1 -28 31 -31 31 -3 0 19 7 20
160 20 153 0 160 1 160 20 0 19 7 20 160 20 153 0 160 1 160 20 0 19 7 20 159
20 158 0 160 0 164 23 l4 22 2 -22 c1 -28 21 -31 21 -3 0 19 7 20 165 20 158
0 165 1 165 20 0 19 7 20 160 20 153 0 160 1 160 20 0 19 7 20 160 20 153 0
160 1 160 20 0 27 28 25 33 -2 l4 -23 2 23 c1 21 4 22 101 22 93 0 100 1 100
20 0 17 7 20 40 20 33 0 40 3 40 20 0 13 7 20 20 20 13 0 20 7 20 20 0 13 7
20 20 20 17 0 20 7 20 40 0 33 3 40 20 40 19 0 20 7 20 90 0 83 1 90 20 90 19
0 20 7 20 110 0 103 1 110 20 110 19 0 20 7 20 100 0 93 1 100 20 100 19 0 20
7 20 99 0 90 2 99 20 104 18 5 20 14 20 116 0 61 3 110 8 110 29 -5 32 4 32
95 0 85 2 94 20 99 18 5 20 14 20 111 0 99 1 106 20 106 19 0 20 7 20 99 0 91
2 100 20 106 18 6 20 15 20 106 0 92 1 99 20 99 19 0 20 7 20 109 0 63 4 112
10 116 6 3 10 1 10 -5 0 -6 5 -8 10 -5 6 3 10 46 10 96 0 78 2 90 20 101 18
11 20 24 20 116 0 92 2 103 18 100 15 -3 17 8 20 100 2 94 4 102 22 102 19 0
20 7 20 99 0 90 2 99 20 104 19 5 20 14 20 121 0 109 -1 116 -20 116 -17 0
-20 7 -20 40 0 33 -3 40 -20 40 -13 0 -20 7 -20 20 0 13 -7 20 -20 20 -13 0
-20 7 -20 20 0 13 -7 20 -20 20 -13 0 -20 7 -20 20 0 17 -7 20 -40 20 -33 0
-40 3 -40 20 0 20 -7 20 -2880 20 l-2880 0 0 60 c0 33 -4 60 -10 60 -5 0 -10
-6 -10 -12 0 -9 -4 -8 -10 2 -5 8 -10 41 -10 73 0 50 -2 57 -20 57 -18 0 -20
7 -20 60 0 53 -2 60 -20 60 -18 0 -20 7 -20 80 0 73 -2 80 -20 80 -18 0 -20 7
-20 60 0 53 -2 60 -20 60 -18 0 -20 7 -20 65 0 60 -2 65 -22 66 -22 1 -22 1 2
9 21 7 12 15 -12 11 -5 0 -8 28 -8 64 0 58 -2 65 -20 65 -17 0 -20 7 -20 40 0
33 -3 40 -20 40 -13 0 -20 7 -20 20 0 13 -7 20 -20 20 -13 0 -20 7 -20 20 0
13 -7 20 -20 20 -13 0 -20 7 -20 20 0 18 -7 20 -60 20 -53 0 -60 2 -60 20 0
20 -7 20 -560 20 -553 0 -560 0 -560 -20z m3480 -2340 l0 -520 -660 0 -660 0
0 40 c0 33 -3 40 -20 40 -18 0 -20 7 -20 60 0 53 -2 60 -20 60 -18 0 -20 7
-20 80 0 73 -2 80 -20 80 -18 0 -20 7 -20 60 0 53 -2 60 -20 60 -18 0 -20 7
-20 59 0 53 -3 60 -22 67 l-23 8 25 7 c24 7 24 7 3 8 -21 1 -23 6 -23 66 0 58
-2 65 -20 65 -18 0 -20 7 -20 60 0 53 -2 60 -20 60 -18 0 -20 7 -20 80 l0 80
800 0 800 0 0 -520z m1680 0 l0 -520 -680 0 -680 0 0 520 0 520 680 0 680 0 0
-520z m1726 504 c-3 -9 -6 -58 -6 -110 0 -87 -1 -94 -20 -94 -19 0 -20 -7 -20
-110 0 -103 -1 -110 -20 -110 -19 0 -20 -7 -20 -100 0 -93 -1 -100 -20 -100
-19 0 -20 -7 -20 -105 0 -58 -3 -104 -7 -104 -30 5 -33 -4 -33 -96 l0 -95
-620 0 -620 0 0 520 0 520 706 0 c640 0 706 -1 700 -16z m-5689 -40 c-3 -3
-12 -4 -19 -1 -8 3 -5 6 6 6 11 1 17 -2 13 -5z m2283 -1924 c0 -613 0 -620
-20 -620 -13 0 -20 -7 -20 -20 0 -19 -7 -20 -160 -20 -153 0 -160 -1 -160 -20
0 -19 -7 -20 -180 -20 -173 0 -180 -1 -180 -20 0 -17 -7 -20 -50 -20 -43 0
-50 3 -50 20 0 11 -4 20 -10 20 -6 0 -10 27 -10 60 0 53 -2 60 -20 60 -18 0
-20 7 -20 60 0 53 -2 60 -20 60 -18 0 -20 7 -20 66 0 41 -4 63 -10 59 -5 -3
-16 -3 -22 1 -9 6 -5 10 12 15 24 7 24 7 3 8 -21 1 -23 6 -23 66 0 58 -2 65
-20 65 -18 0 -20 7 -20 60 0 53 -2 60 -20 60 -17 0 -20 7 -20 49 0 68 -10 111
-26 111 -10 0 -14 16 -14 60 0 53 -2 60 -20 60 -18 0 -20 7 -20 60 0 53 -2 60
-20 60 -18 0 -20 7 -20 65 0 60 -2 65 -22 66 -22 1 -22 1 2 9 24 8 24 8 3 9
-21 1 -23 6 -23 66 l0 65 600 0 600 0 0 -620z m1680 100 l0 -520 -40 0 c-33 0
-40 -3 -40 -20 0 -19 -7 -20 -160 -20 -153 0 -160 -1 -160 -20 0 -19 -7 -20
-160 -20 -153 0 -160 -1 -160 -20 0 -19 -7 -20 -160 -20 -159 0 -160 0 -161
-22 -1 -22 -1 -22 -9 2 l-8 25 -2 -25 -2 -25 -8 25 c-8 24 -8 24 -9 3 -1 -23
-3 -23 -141 -23 l-140 0 0 600 0 600 680 0 680 0 0 -520z m1480 460 c0 -52 -2
-60 -17 -58 -16 3 -18 -8 -21 -91 -2 -81 -6 -97 -22 -108 -18 -12 -20 -26 -20
-109 0 -87 -1 -94 -20 -94 -19 0 -20 -7 -20 -97 0 -102 -11 -142 -30 -113 -7
10 -10 -10 -10 -67 l0 -83 -40 0 c-33 0 -40 -3 -40 -20 0 -19 -7 -20 -160 -20
-153 0 -160 -1 -160 -20 0 -19 -7 -20 -157 -20 -87 0 -165 -5 -173 -10 -11 -7
-11 -10 -2 -10 7 0 10 -4 7 -10 -4 -6 -62 -10 -141 -10 l-134 0 0 500 0 500
580 0 580 0 0 -60z"/>
<path d="M1748 6733 c7 -3 16 -2 19 1 4 3 -2 6 -13 5 -11 0 -14 -3 -6 -6z"/>
<path d="M2980 1420 c0 -17 -7 -20 -40 -20 -33 0 -40 -3 -40 -20 0 -17 -7 -20
-40 -20 -33 0 -40 -3 -40 -20 0 -13 -7 -20 -20 -20 -13 0 -20 -7 -20 -20 0
-13 -7 -20 -20 -20 -13 0 -20 -7 -20 -20 0 -13 -7 -20 -20 -20 -13 0 -20 -7
-20 -20 0 -13 -7 -20 -20 -20 -17 0 -20 -7 -20 -40 0 -33 -3 -40 -20 -40 -19
0 -25 -17 -23 -67 1 -7 -8 -13 -18 -13 -16 0 -19 -8 -19 -50 0 -43 -3 -50 -20
-50 -19 0 -20 -7 -20 -136 0 -127 1 -136 20 -141 18 -5 20 -14 20 -74 0 -62 2
-69 19 -69 16 0 20 -8 23 -37 2 -29 7 -38 21 -37 12 1 17 -5 17 -22 0 -17 6
-24 20 -24 13 0 20 -7 20 -20 0 -13 7 -20 20 -20 13 0 20 -7 20 -20 0 -13 7
-20 20 -20 13 0 20 -7 20 -20 0 -13 7 -20 20 -20 13 0 20 -7 20 -19 0 -16 8
-20 38 -23 28 -2 37 -7 36 -20 -2 -15 6 -18 42 -18 37 0 44 -3 44 -20 0 -18 7
-20 75 -20 68 0 75 -2 75 -20 0 -18 7 -20 85 -20 78 0 85 2 85 20 0 18 7 20
80 20 73 0 80 2 80 20 0 17 7 20 40 20 33 0 40 3 40 20 0 18 20 26 53 21 4 0
7 8 7 19 0 16 7 20 30 20 23 0 30 4 30 20 0 13 7 20 20 20 13 0 20 7 20 20 0
13 7 20 20 20 17 0 20 7 20 40 0 33 3 40 20 40 13 0 20 7 20 20 0 13 7 20 20
20 18 0 20 7 20 60 0 53 2 60 20 60 19 0 20 7 20 200 0 193 -1 200 -20 200
-17 0 -20 7 -20 40 0 33 -3 40 -20 40 -17 0 -20 7 -20 40 0 33 -3 40 -20 40
-14 0 -20 7 -20 24 0 18 -4 23 -18 19 -15 -3 -18 2 -19 32 -1 44 -3 46 -41 47
-21 1 -32 7 -35 19 -3 11 -14 19 -26 19 -14 0 -21 6 -21 20 0 13 -7 20 -19 20
-10 0 -21 9 -24 20 -4 17 -14 20 -56 20 -44 0 -51 3 -51 20 0 19 -7 20 -225
20 -218 0 -225 -1 -225 -20z"/>
<path d="M6740 1420 c0 -17 -6 -20 -40 -20 -33 0 -40 -3 -40 -20 0 -20 -17
-25 -62 -21 -12 2 -18 -5 -18 -18 0 -14 -6 -21 -20 -21 -13 0 -20 -7 -20 -20
0 -13 -7 -20 -20 -20 -13 0 -20 -7 -20 -20 0 -13 -7 -20 -20 -20 -13 0 -20 -7
-20 -20 0 -13 -7 -20 -20 -20 -17 0 -20 -7 -20 -40 0 -33 -3 -40 -20 -40 -17
0 -20 -7 -20 -40 0 -33 -3 -40 -20 -40 -18 0 -20 -7 -20 -80 0 -73 -2 -80 -20
-80 -19 0 -20 -7 -20 -91 0 -86 1 -91 20 -86 19 5 20 0 20 -69 0 -67 2 -74 20
-74 17 0 20 -7 20 -40 0 -33 3 -40 20 -40 17 0 20 -7 20 -40 0 -33 3 -40 20
-40 13 0 20 -7 20 -20 0 -13 7 -20 20 -20 13 0 20 -7 20 -20 0 -13 7 -20 20
-20 13 0 20 -7 20 -20 0 -13 7 -20 20 -20 13 0 20 -7 20 -20 0 -17 7 -20 40
-20 33 0 40 -3 40 -20 0 -17 7 -20 40 -20 33 0 40 -3 40 -20 0 -18 7 -20 75
-20 68 0 75 -2 75 -20 0 -18 7 -20 85 -20 78 0 85 2 85 20 0 18 7 20 80 20 73
0 80 2 80 20 0 17 7 20 40 20 33 0 40 3 40 20 0 17 7 20 40 20 33 0 40 3 40
20 0 13 7 20 20 20 13 0 20 7 20 20 0 13 7 20 20 20 13 0 20 7 20 20 0 13 7
20 20 20 13 0 20 7 20 20 0 13 7 20 20 20 17 0 20 7 20 40 0 33 3 40 20 40 17
0 20 7 20 40 0 33 3 40 20 40 19 0 20 7 20 209 0 227 -5 275 -26 267 -11 -4
-14 6 -14 39 0 38 -3 45 -20 45 -13 0 -20 7 -20 20 0 13 -7 20 -20 20 -17 0
-20 7 -20 40 0 33 -3 40 -20 40 -13 0 -20 7 -20 20 0 13 -7 20 -20 20 -13 0
-20 7 -20 20 0 17 -7 20 -40 20 -33 0 -40 3 -40 20 0 13 -7 20 -20 20 -13 0
-20 7 -20 20 0 17 -7 20 -44 20 -35 0 -45 4 -49 19 -5 19 -16 20 -236 21 -226
1 -231 0 -231 -20z"/>
</g>
</svg>
