<?xml version="1.0" standalone="no"?>
<!DOCTYPE svg PUBLIC "-//W3C//DTD SVG 20010904//EN"
 "http://www.w3.org/TR/2001/REC-SVG-20010904/DTD/svg10.dtd">
<svg version="1.0" xmlns="http://www.w3.org/2000/svg"
 width="1200.000000pt" height="960.000000pt" viewBox="0 0 1200.000000 960.000000"
 preserveAspectRatio="xMidYMid meet">

<g transform="translate(0.000000,960.000000) scale(0.100000,-0.100000)"
fill="#000000" stroke="none">
<path d="M6280 7055 c0 -240 46 -508 119 -688 40 -99 44 -113 31 -137 -26 -49
-133 -6 -246 100 -212 201 -472 289 -766 259 -57 -5 -121 -15 -143 -21 l-40
-11 65 -19 c380 -110 579 -265 530 -413 -31 -95 -105 -94 -464 6 -402 113
-612 133 -831 80 -142 -35 -283 -112 -372 -203 l-42 -43 202 0 c232 -1 325
-18 456 -82 125 -62 220 -177 207 -249 -13 -66 -91 -109 -370 -203 -315 -107
-430 -163 -570 -279 -72 -60 -133 -137 -176 -224 -37 -75 -78 -213 -67 -224 3
-3 50 25 104 64 185 132 365 222 525 263 63 17 102 20 177 17 111 -4 165 -25
231 -89 121 -117 121 -280 1 -583 -134 -336 -155 -416 -155 -591 -1 -112 2
-140 23 -204 26 -80 97 -195 154 -249 l34 -33 -15 68 c-20 97 -11 287 18 373
73 218 243 377 480 451 101 32 310 34 410 5 285 -84 472 -302 512 -597 30
-229 -62 -462 -259 -650 -184 -176 -463 -312 -748 -365 -146 -28 -403 -25
-542 4 -257 55 -479 173 -672 356 -72 69 -80 74 -53 36 202 -280 542 -488 913
-556 115 -21 387 -24 504 -6 115 19 285 64 401 107 343 129 618 351 743 602
85 171 106 274 98 487 -8 206 -45 360 -127 531 -87 180 -167 272 -414 479
-234 196 -306 276 -366 409 -34 77 -50 149 -50 231 0 62 28 175 51 206 9 12
10 11 4 -5 -14 -40 -17 -142 -6 -195 32 -153 109 -254 388 -503 396 -354 482
-462 567 -717 46 -138 66 -266 66 -426 0 -430 -187 -776 -565 -1046 -65 -46
-67 -50 -35 -43 201 38 421 182 558 364 243 322 288 745 125 1181 -88 236
-196 411 -452 730 -195 244 -236 302 -268 380 -40 98 -24 163 53 211 56 34
172 37 345 10 189 -31 261 -49 366 -91 195 -78 342 -195 470 -375 127 -179
221 -255 316 -255 38 0 49 5 71 31 14 17 26 41 26 53 0 13 15 43 33 67 44 57
57 83 57 110 0 19 -5 17 -45 -20 -71 -66 -81 -61 -232 104 -147 161 -251 245
-351 284 -119 47 -238 115 -271 155 -18 21 -12 21 116 -9 216 -51 371 -115
446 -184 51 -47 115 -79 263 -136 143 -54 178 -74 182 -105 6 -39 -16 -96 -51
-130 l-32 -32 35 7 c78 16 113 53 145 155 10 30 35 88 56 128 43 81 49 130 21
155 -10 9 -72 30 -138 46 -66 17 -158 46 -205 66 -46 20 -160 66 -254 102
-472 182 -658 271 -821 394 -114 87 -77 175 63 149 111 -20 187 -69 279 -180
60 -73 135 -140 157 -140 5 0 -4 24 -21 53 -40 72 -96 217 -117 304 -22 94
-69 149 -163 194 -175 85 -342 252 -507 509 -51 79 -133 244 -159 320 l-15 45
-1 -130z"/>
</g>
</svg>
