<?xml version="1.0" standalone="no"?>
<!DOCTYPE svg PUBLIC "-//W3C//DTD SVG 20010904//EN"
 "http://www.w3.org/TR/2001/REC-SVG-20010904/DTD/svg10.dtd">
<svg version="1.0" xmlns="http://www.w3.org/2000/svg"
 width="981.000000pt" height="932.000000pt" viewBox="0 0 981.000000 932.000000"
 preserveAspectRatio="xMidYMid meet">

<g transform="translate(0.000000,932.000000) scale(0.100000,-0.100000)"
fill="#000000" stroke="none">
<path d="M7320 9310 c-444 -49 -934 -259 -1241 -533 -111 -99 -240 -233 -328
-340 -175 -215 -322 -523 -406 -850 -24 -93 -46 -171 -49 -174 -15 -16 -340
-22 -1156 -23 -1013 -1 -2073 -15 -2140 -29 -25 -5 -48 -6 -52 -2 -5 4 -24
151 -43 326 -42 380 -58 473 -91 542 -29 61 -91 115 -149 133 -48 14 -1038 29
-1270 19 -179 -8 -229 -23 -295 -89 -35 -34 -51 -62 -68 -113 -41 -126 -22
-218 63 -304 86 -85 79 -84 662 -92 428 -5 504 -8 516 -21 14 -14 35 -210 187
-1705 124 -1219 220 -2140 265 -2550 50 -456 63 -516 140 -648 24 -41 67 -103
94 -137 28 -35 51 -67 51 -72 0 -4 -16 -47 -35 -94 -19 -48 -39 -112 -45 -142
-12 -66 -12 -427 -1 -707 8 -168 12 -209 31 -258 33 -87 109 -194 203 -284
l84 -80 6 -134 c12 -264 86 -455 236 -612 141 -148 262 -228 426 -282 243 -81
483 -68 712 40 311 146 504 416 556 781 l13 89 589 0 589 0 18 -100 c66 -374
246 -626 550 -770 142 -67 244 -89 413 -89 169 0 271 22 411 88 114 54 167 90
255 173 224 212 336 515 299 810 -29 236 -127 432 -294 591 -121 115 -246 186
-421 238 -80 24 -107 27 -245 28 -133 1 -167 -2 -239 -22 -167 -46 -288 -114
-435 -247 l-94 -85 -800 0 -801 0 -86 80 c-100 93 -144 124 -240 173 -157 79
-308 111 -490 104 -145 -5 -240 -29 -370 -94 -79 -40 -224 -134 -250 -163 -10
-11 -23 -20 -28 -20 -6 0 -8 110 -5 308 4 279 7 311 25 352 11 25 26 50 34 57
11 9 552 13 2299 16 2322 5 2399 6 2567 42 87 19 225 85 313 150 135 100 292
269 342 370 49 97 266 720 725 2085 l56 165 197 200 c108 110 228 238 267 285
210 253 376 643 440 1035 25 154 25 486 0 645 -149 944 -821 1673 -1742 1890
-206 48 -532 71 -725 50z m570 -604 c221 -40 504 -174 695 -329 311 -252 544
-632 612 -997 22 -122 25 -535 4 -650 -22 -120 -76 -275 -146 -415 -198 -397
-549 -708 -972 -861 -170 -62 -227 -69 -533 -69 -300 0 -354 6 -510 57 -275
89 -565 279 -756 496 -184 210 -332 490 -390 738 -35 151 -35 587 0 749 38
179 148 424 260 584 266 377 699 651 1121 711 96 14 517 4 615 -14z m-2596
-1953 c3 -16 14 -77 26 -138 45 -239 197 -606 336 -815 135 -203 412 -480 615
-618 281 -188 589 -308 954 -369 165 -27 525 -24 688 5 142 26 177 28 177 7 0
-41 -494 -1496 -535 -1575 -23 -44 -108 -134 -162 -171 -23 -16 -67 -35 -98
-44 -140 -36 -293 -38 -2545 -36 l-2194 2 -63 45 c-40 29 -71 60 -84 85 -54
106 -82 330 -248 1974 -121 1192 -148 1503 -137 1559 4 17 18 48 31 68 l25 38
167 3 c93 1 815 4 1605 5 l1436 2 6 -27z m-1936 -5448 c226 -101 277 -415 96
-590 -67 -66 -136 -89 -264 -89 -90 -1 -112 2 -152 22 -65 32 -122 92 -160
169 -27 55 -33 80 -36 154 -4 81 -2 93 25 151 37 77 118 162 187 195 46 22 61
24 146 20 77 -3 107 -9 158 -32z m3099 19 c146 -50 242 -187 244 -347 1 -106
-28 -176 -105 -253 -83 -83 -148 -107 -266 -102 -144 7 -259 78 -317 197 -25
50 -28 67 -27 151 1 184 77 294 243 355 51 19 171 18 228 -1z"/>
<path d="M7490 7964 c-71 -19 -133 -56 -161 -95 -40 -57 -51 -114 -56 -311
l-6 -186 -136 -6 c-283 -13 -356 -33 -417 -115 -61 -83 -82 -209 -49 -301 21
-60 77 -124 127 -148 45 -22 190 -42 300 -42 35 0 86 -3 115 -6 l51 -7 6 -86
c12 -187 26 -318 36 -354 46 -157 296 -217 448 -107 78 56 98 127 108 385 l7
163 86 6 c208 14 329 26 366 38 50 16 110 76 138 137 33 71 31 188 -5 262 -38
77 -90 126 -153 145 -46 13 -284 33 -402 34 l-43 0 0 183 c0 133 -4 197 -15
233 -40 136 -200 219 -345 178z"/>
</g>
</svg>
