<?xml version="1.0" standalone="no"?>
<!DOCTYPE svg PUBLIC "-//W3C//DTD SVG 20010904//EN"
 "http://www.w3.org/TR/2001/REC-SVG-20010904/DTD/svg10.dtd">
<svg version="1.0" xmlns="http://www.w3.org/2000/svg"
 width="980.000000pt" height="706.000000pt" viewBox="0 0 980.000000 706.000000"
 preserveAspectRatio="xMidYMid meet">

<g transform="translate(0.000000,706.000000) scale(0.100000,-0.100000)"
fill="#000000" stroke="none">
<path d="M104 7046 c-17 -8 -39 -24 -48 -37 -21 -31 -20 -98 2 -125 9 -11 116
-104 237 -205 121 -102 362 -304 535 -450 173 -146 657 -553 1075 -904 418
-352 987 -831 1265 -1064 278 -234 577 -486 666 -561 88 -74 351 -295 583
-490 232 -195 436 -361 455 -368 28 -12 38 -11 67 1 19 8 356 286 749 617 393
332 911 767 1150 969 239 201 590 496 780 656 804 677 979 824 1445 1215 270
227 533 449 587 494 102 86 118 108 118 159 0 42 -24 75 -66 93 -49 21 -9553
20 -9600 0z m9256 -211 c0 -4 -263 -226 -1390 -1174 -315 -265 -561 -472 -967
-814 -472 -397 -1680 -1412 -1879 -1580 -116 -97 -214 -177 -218 -177 -6 0
-373 307 -1701 1425 -275 231 -842 708 -1260 1060 -418 351 -843 709 -945 795
-102 86 -267 225 -367 309 -101 84 -183 155 -183 157 0 2 2005 4 4455 4 2450
0 4455 -2 4455 -5z"/>
<path d="M34 6676 l-34 -34 0 -3282 0 -3282 34 -34 c45 -45 101 -48 145 -7 16
16 267 312 558 659 290 347 1001 1195 1578 1883 578 689 1058 1268 1069 1287
40 75 50 65 -511 540 -740 627 -2512 2126 -2626 2222 -87 73 -101 82 -138 82
-33 0 -47 -6 -75 -34z m1108 -1089 c502 -425 1154 -977 1448 -1226 294 -249
536 -457 538 -461 3 -7 -676 -819 -2570 -3078 l-338 -403 0 2970 c0 1634 2
2971 5 2971 2 0 415 -348 917 -773z"/>
<path d="M9587 6658 c-36 -29 -267 -224 -513 -433 -560 -475 -1925 -1631
-2340 -1982 -171 -145 -316 -275 -322 -289 -15 -32 -15 -59 0 -87 6 -12 289
-353 628 -757 339 -404 922 -1099 1295 -1545 1214 -1448 1294 -1542 1310
-1549 39 -15 85 -6 117 23 l33 29 0 3292 0 3292 -33 29 c-52 47 -96 41 -175
-23z m-7 -3269 l0 -2971 -112 134 c-62 74 -213 253 -335 398 -484 578 -2020
2411 -2235 2668 -126 150 -228 277 -226 281 2 5 386 333 853 729 468 395 1118
947 1445 1225 327 278 598 506 603 506 4 1 7 -1336 7 -2970z"/>
<path d="M6253 3823 c-17 -10 -318 -261 -669 -558 -351 -297 -648 -548 -659
-557 -21 -17 -33 -8 -601 459 -820 673 -768 633 -810 633 -62 0 43 117 -975
-1085 -228 -269 -705 -832 -1059 -1250 -354 -418 -741 -875 -860 -1015 -119
-140 -224 -266 -233 -280 -38 -56 -6 -141 60 -159 26 -8 1389 -11 4466 -11
4785 0 4472 -4 4511 51 21 30 21 88 -1 119 -9 14 -213 259 -453 545 -240 286
-919 1096 -1508 1800 -590 704 -1087 1290 -1104 1303 -37 27 -63 28 -105 5z
m858 -1228 c448 -533 1078 -1285 1401 -1670 l587 -700 -4186 -3 c-2303 -1
-4189 0 -4191 3 -3 3 17 31 45 62 27 32 326 384 663 783 338 399 776 916 974
1150 198 234 522 616 719 850 198 234 369 435 381 448 l22 23 665 -546 c476
-390 673 -547 696 -551 23 -4 43 0 66 12 30 17 682 564 1156 971 91 78 171
141 178 140 6 -1 377 -438 824 -972z"/>
</g>
</svg>
