<?xml version="1.0" standalone="no"?>
<!DOCTYPE svg PUBLIC "-//W3C//DTD SVG 20010904//EN"
 "http://www.w3.org/TR/2001/REC-SVG-20010904/DTD/svg10.dtd">
<svg version="1.0" xmlns="http://www.w3.org/2000/svg"
 width="980.000000pt" height="678.000000pt" viewBox="0 0 980.000000 678.000000"
 preserveAspectRatio="xMidYMid meet">

<g transform="translate(0.000000,678.000000) scale(0.100000,-0.100000)"
fill="#000000" stroke="none">
<path d="M1005 6770 c-580 -5 -591 -5 -644 -27 -137 -56 -238 -151 -311 -295
l-50 -96 0 -2967 0 -2967 41 -78 c40 -77 172 -236 227 -272 33 -21 119 -36
290 -49 196 -15 3677 -23 6509 -14 l2352 7 83 47 c105 59 179 133 245 246 l53
90 0 2993 0 2993 -24 47 c-67 132 -181 244 -317 312 l-79 40 -3892 -2 c-2141
-2 -4158 -5 -4483 -8z m8110 -411 c-292 -300 -3419 -3275 -3666 -3488 -94 -80
-232 -139 -379 -162 -97 -15 -356 -5 -428 16 -119 36 -238 103 -349 200 -191
164 -1743 1646 -3290 3139 l-343 331 233 5 c127 3 2041 7 4252 8 l4019 2 -49
-51z m316 -4375 l-6 -1350 -741 710 c-1424 1365 -2104 2024 -2104 2040 0 23
640 648 1845 1801 270 258 605 580 745 714 l255 245 6 -1405 c4 -772 4 -2012
0 -2755z m-8830 3946 c278 -263 997 -950 1524 -1455 663 -635 925 -886 1038
-991 l98 -92 -593 -569 c-543 -521 -2090 -2000 -2234 -2136 -33 -31 -64 -57
-69 -57 -9 0 2 5329 11 5432 6 62 8 66 24 55 9 -6 100 -91 201 -187z m6460
-3539 c382 -366 793 -760 914 -875 121 -116 276 -265 345 -331 120 -115 393
-376 680 -649 74 -71 136 -132 138 -137 2 -4 -23 -10 -55 -14 -57 -6 -8218
-19 -8362 -13 l-74 3 469 450 c578 555 1954 1870 2321 2218 45 42 87 77 93 77
6 0 64 -51 128 -112 271 -261 310 -299 377 -355 142 -122 308 -215 470 -266
316 -99 705 -68 996 78 136 68 207 126 583 478 l199 186 42 -37 c23 -20 354
-336 736 -701z"/>
</g>
</svg>
