<?xml version="1.0" standalone="no"?>
<!DOCTYPE svg PUBLIC "-//W3C//DTD SVG 20010904//EN"
 "http://www.w3.org/TR/2001/REC-SVG-20010904/DTD/svg10.dtd">
<svg version="1.0" xmlns="http://www.w3.org/2000/svg"
 width="900.000000pt" height="900.000000pt" viewBox="0 0 900.000000 900.000000"
 preserveAspectRatio="xMidYMid meet">

<g transform="translate(0.000000,900.000000) scale(0.100000,-0.100000)"
fill="#000000" stroke="none">
<path d="M2438 6480 c-115 -20 -222 -96 -276 -197 -58 -111 -65 -222 -20 -340
29 -80 130 -180 213 -214 l60 -24 2055 -3 c1530 -2 2069 0 2110 8 79 17 144
55 205 122 73 79 99 146 99 263 0 80 -3 97 -31 157 -59 126 -164 206 -298 228
-73 12 -4047 12 -4117 0z"/>
<path d="M2405 4881 c-102 -26 -209 -115 -256 -215 -90 -191 -11 -417 182
-518 l64 -33 2105 0 2105 0 63 33 c293 153 293 551 1 704 l-64 33 -2085 2
c-1147 0 -2098 -2 -2115 -6z"/>
<path d="M2398 3285 c-70 -19 -129 -57 -186 -120 -70 -77 -95 -145 -96 -261
-1 -85 1 -95 37 -166 40 -81 98 -143 171 -180 96 -49 33 -48 2171 -48 1221 0
2023 4 2058 10 133 21 242 104 300 228 29 60 32 76 31 157 0 69 -6 104 -23
148 -32 81 -114 168 -199 209 l-67 33 -2075 2 c-1681 1 -2084 -1 -2122 -12z"/>
</g>
</svg>
